HIERARCHY
ROOT reference
{
  OFFSET 0 0 0
  CHANNELS 6 Xposition Yposition Zposition Zrotation Xrotation Yrotation
  JOINT Hips
  {
    OFFSET 44.6805 85.9651 -20.1189
    CHANNELS 3 Zrotation Xrotation Yrotation
    JOINT RightUpLeg
    {
      OFFSET -9.20028 -1.61905 0.0313892
      CHANNELS 3 Zrotation Xrotation Yrotation
      JOINT RightLeg
      {
        OFFSET 0.0920446 -41.8676 0.113709
        CHANNELS 3 Zrotation Xrotation Yrotation
        JOINT RightFoot
        {
          OFFSET -0.78009 -42.2818 -0.985537
          CHANNELS 3 Zrotation Xrotation Yrotation
          End Site
          {
            OFFSET 0 -7.69 17.5
          }
        }
      }
    }
    JOINT LeftUpLeg
    {
      OFFSET 9.33559 -1.63058 -0.0435578
      CHANNELS 3 Zrotation Xrotation Yrotation
      JOINT LeftLeg
      {
        OFFSET 0.124601 -41.8685 -0.0153308
        CHANNELS 3 Zrotation Xrotation Yrotation
        JOINT LeftFoot
        {
          OFFSET -0.885525 -42.178 -0.480441
          CHANNELS 3 Zrotation Xrotation Yrotation
          End Site
          {
            OFFSET 0 -7.69 17.5
          }
        }
      }
    }
    JOINT Spine
    {
      OFFSET -0.030151 14.2977 0.0632059
      CHANNELS 3 Zrotation Xrotation Yrotation
      JOINT Spine1
      {
        OFFSET -0.0449239 9.71163 -4.69081e-05
        CHANNELS 3 Zrotation Xrotation Yrotation
        JOINT Spine2
        {
          OFFSET 0.0275009 10.1133 -0.0283136
          CHANNELS 3 Zrotation Xrotation Yrotation
          JOINT Spine3
          {
            OFFSET 0.0288761 9.7229 -0.000806902
            CHANNELS 3 Zrotation Xrotation Yrotation
            JOINT Neck
            {
              OFFSET -0.0518603 10.2949 0.241895
              CHANNELS 3 Zrotation Xrotation Yrotation
              JOINT Head
              {
                OFFSET -0.275401 9.55953 0.0709142
                CHANNELS 3 Zrotation Xrotation Yrotation
                End Site
                {
                  OFFSET 0 15.95 0
                }
              }
            }
            JOINT RightShoulder
            {
              OFFSET -3.17286 6.95881 0.00543218
              CHANNELS 3 Zrotation Xrotation Yrotation
              JOINT RightArm
              {
                OFFSET -12.7612 0.039846 0.0411956
                CHANNELS 3 Zrotation Xrotation Yrotation
                JOINT RightForeArm
                {
                  OFFSET -26.5517 0.0729849 0.08211
                  CHANNELS 3 Zrotation Xrotation Yrotation
                  JOINT RightHand
                  {
                    OFFSET -26.0042 -0.0197864 0.0403594
                    CHANNELS 3 Zrotation Xrotation Yrotation
                    JOINT RightHandThumb1
                    {
                      OFFSET -2.48905 0.190105 3.12053
                      CHANNELS 3 Zrotation Xrotation Yrotation
                      JOINT RightHandThumb2
                      {
                        OFFSET -3.68274 0 0
                        CHANNELS 3 Zrotation Xrotation Yrotation
                        JOINT RightHandThumb3
                        {
                          OFFSET -2.55832 0 0
                          CHANNELS 3 Zrotation Xrotation Yrotation
                          End Site
                          {
                            OFFSET -2.194 0 0
                          }
                        }
                      }
                    }
                    JOINT RightInHandIndex
                    {
                      OFFSET -3.22368 0.508421 1.97842
                      CHANNELS 3 Zrotation Xrotation Yrotation
                      JOINT RightHandIndex1
                      {
                        OFFSET -5.21684 -0.091368 0.999158
                        CHANNELS 3 Zrotation Xrotation Yrotation
                        JOINT RightHandIndex2
                        {
                          OFFSET -3.61937 0 0
                          CHANNELS 3 Zrotation Xrotation Yrotation
                          JOINT RightHandIndex3
                          {
                            OFFSET -2.0521 0 0
                            CHANNELS 3 Zrotation Xrotation Yrotation
                            End Site
                            {
                              OFFSET -1.805 0 0
                            }
                          }
                        }
                      }
                    }
                    JOINT RightInHandMiddle
                    {
                      OFFSET -3.38211 0.517263 0.756737
                      CHANNELS 3 Zrotation Xrotation Yrotation
                      JOINT RightHandMiddle1
                      {
                        OFFSET -5.17411 -0.084 0.313895
                        CHANNELS 3 Zrotation Xrotation Yrotation
                        JOINT RightHandMiddle2
                        {
                          OFFSET -3.94947 0 0
                          CHANNELS 3 Zrotation Xrotation Yrotation
                          JOINT RightHandMiddle3
                          {
                            OFFSET -2.47579 0 0
                            CHANNELS 3 Zrotation Xrotation Yrotation
                            End Site
                            {
                              OFFSET -1.975 0 0
                            }
                          }
                        }
                      }
                    }
                    JOINT RightInHandRing
                    {
                      OFFSET -3.36516 0.537895 -0.128947
                      CHANNELS 3 Zrotation Xrotation Yrotation
                      JOINT RightHandRing1
                      {
                        OFFSET -4.63474 -0.022105 -0.478947
                        CHANNELS 3 Zrotation Xrotation Yrotation
                        JOINT RightHandRing2
                        {
                          OFFSET -3.44238 0 0
                          CHANNELS 3 Zrotation Xrotation Yrotation
                          JOINT RightHandRing3
                          {
                            OFFSET -2.3881 0 0
                            CHANNELS 3 Zrotation Xrotation Yrotation
                            End Site
                            {
                              OFFSET -1.857 0 0
                            }
                          }
                        }
                      }
                    }
                    JOINT RightInHandPinky
                    {
                      OFFSET -3.16105 0.469368 -1.20179
                      CHANNELS 3 Zrotation Xrotation Yrotation
                      JOINT RightHandPinky1
                      {
                        OFFSET -4.14105 -0.022105 -1.09053
                        CHANNELS 3 Zrotation Xrotation Yrotation
                        JOINT RightHandPinky2
                        {
                          OFFSET -2.75653 0 0
                          CHANNELS 3 Zrotation Xrotation Yrotation
                          JOINT RightHandPinky3
                          {
                            OFFSET -1.74189 0 0
                            CHANNELS 3 Zrotation Xrotation Yrotation
                            End Site
                            {
                              OFFSET -1.645 0 0
                            }
                          }
                        }
                      }
                    }
                  }
                }
              }
            }
            JOINT LeftShoulder
            {
              OFFSET 3.22572 6.89245 -0.0537601
              CHANNELS 3 Zrotation Xrotation Yrotation
              JOINT LeftArm
              {
                OFFSET 12.8183 -0.0506887 -0.111983
                CHANNELS 3 Zrotation Xrotation Yrotation
                JOINT LeftForeArm
                {
                  OFFSET 26.4786 -0.0502099 0.0159937
                  CHANNELS 3 Zrotation Xrotation Yrotation
                  JOINT LeftHand
                  {
                    OFFSET 25.8931 -0.161185 0.0946899
                    CHANNELS 3 Zrotation Xrotation Yrotation
                    JOINT LeftHandThumb1
                    {
                      OFFSET 2.48905 0.190105 3.12053
                      CHANNELS 3 Zrotation Xrotation Yrotation
                      JOINT LeftHandThumb2
                      {
                        OFFSET 3.68274 0 0
                        CHANNELS 3 Zrotation Xrotation Yrotation
                        JOINT LeftHandThumb3
                        {
                          OFFSET 2.55832 0 0
                          CHANNELS 3 Zrotation Xrotation Yrotation
                          End Site
                          {
                            OFFSET 2.194 0 0
                          }
                        }
                      }
                    }
                    JOINT LeftInHandIndex
                    {
                      OFFSET 3.22368 0.508421 1.97842
                      CHANNELS 3 Zrotation Xrotation Yrotation
                      JOINT LeftHandIndex1
                      {
                        OFFSET 5.21684 -0.091368 0.999158
                        CHANNELS 3 Zrotation Xrotation Yrotation
                        JOINT LeftHandIndex2
                        {
                          OFFSET 3.61937 0 0
                          CHANNELS 3 Zrotation Xrotation Yrotation
                          JOINT LeftHandIndex3
                          {
                            OFFSET 2.0521 0 0
                            CHANNELS 3 Zrotation Xrotation Yrotation
                            End Site
                            {
                              OFFSET 1.805 0 0
                            }
                          }
                        }
                      }
                    }
                    JOINT LeftInHandMiddle
                    {
                      OFFSET 3.38211 0.517263 0.756737
                      CHANNELS 3 Zrotation Xrotation Yrotation
                      JOINT LeftHandMiddle1
                      {
                        OFFSET 5.17411 -0.084 0.313895
                        CHANNELS 3 Zrotation Xrotation Yrotation
                        JOINT LeftHandMiddle2
                        {
                          OFFSET 3.94947 0 0
                          CHANNELS 3 Zrotation Xrotation Yrotation
                          JOINT LeftHandMiddle3
                          {
                            OFFSET 2.47579 0 0
                            CHANNELS 3 Zrotation Xrotation Yrotation
                            End Site
                            {
                              OFFSET 1.975 0 0
                            }
                          }
                        }
                      }
                    }
                    JOINT LeftInHandRing
                    {
                      OFFSET 3.36516 0.537895 -0.128947
                      CHANNELS 3 Zrotation Xrotation Yrotation
                      JOINT LeftHandRing1
                      {
                        OFFSET 4.63474 -0.022105 -0.478947
                        CHANNELS 3 Zrotation Xrotation Yrotation
                        JOINT LeftHandRing2
                        {
                          OFFSET 3.44238 0 0
                          CHANNELS 3 Zrotation Xrotation Yrotation
                          JOINT LeftHandRing3
                          {
                            OFFSET 2.3881 0 0
                            CHANNELS 3 Zrotation Xrotation Yrotation
                            End Site
                            {
                              OFFSET 1.857 0 0
                            }
                          }
                        }
                      }
                    }
                    JOINT LeftInHandPinky
                    {
                      OFFSET 3.16105 0.469368 -1.20179
                      CHANNELS 3 Zrotation Xrotation Yrotation
                      JOINT LeftHandPinky1
                      {
                        OFFSET 4.14105 -0.022105 -1.09053
                        CHANNELS 3 Zrotation Xrotation Yrotation
                        JOINT LeftHandPinky2
                        {
                          OFFSET 2.75653 0 0
                          CHANNELS 3 Zrotation Xrotation Yrotation
                          JOINT LeftHandPinky3
                          {
                            OFFSET 1.74189 0 0
                            CHANNELS 3 Zrotation Xrotation Yrotation
                            End Site
                            {
                              OFFSET 1.645 0 0
                            }
                          }
                        }
                      }
                    }
                  }
                }
              }
            }
          }
        }
      }
    }
  }
}
MOTION
Frames: 2
Frame Time: 0.00833333
6.000000000000000000e+02 0.000000000000000000e+00 0.000000000000000000e+00 0.000000000000000000e+00 0.000000000000000000e+00 0.000000000000000000e+00 9.021074326503364382e-01 -2.422763436840466023e-01 -4.074827599576247295e-01 -7.375705497605831162e-01 -7.116502881904941402e-01 -1.697603915154447973e+00 -2.727074839486030022e-01 1.397463442357351315e+00 -6.893391170821501213e-01 4.322390150930824904e-01 -3.912360761981135693e-01 4.918570990331999626e-01 -5.135828989659801946e-02 -2.073554300733312372e-01 -7.729848617567429692e-01 -4.681197909969266324e-01 -2.126695295994063817e-01 2.044568932863002786e+00 -6.528814117385053906e-02 8.904985808333969466e-01 -3.268485888642221338e-01 3.506794224170045604e-02 -5.311960436670825070e-01 -1.448929904031200921e+00 -7.034837203760699320e-02 3.863333205421983774e-01 -2.414935391971813616e-01 -3.448880256257667865e-02 -8.057869562939582453e-01 -7.082849235204431437e-01 7.710569487656970811e-02 -8.724291017065836928e-02 -6.276216142915627683e-02 2.246740039541402556e+00 -2.350190610215960874e+00 4.366633838425822312e+00 9.458510103179335049e-01 8.521775456960642980e-01 1.891316582764530629e-01 -4.493159731711325322e-01 -6.176048789058325994e-01 -1.241869657249154713e-02 1.329730886585328786e+00 -1.657270989305731801e+00 -2.082975369194352222e+00 6.169836263627622941e+01 -4.079150702286081120e+00 2.592162053774638508e+01 1.377499073946610586e-01 -2.680610628340442947e+00 2.475633004790739555e+00 0.000000000000000000e+00 0.000000000000000000e+00 0.000000000000000000e+00 1.100409791996905442e-15 -4.826950568480951463e-16 0.000000000000000000e+00 -2.411967577628715739e-15 1.041480173623839332e-15 0.000000000000000000e+00 6.114047373562964828e-18 1.418655428286759081e-15 8.989386497608209391e-16 0.000000000000000000e+00 0.000000000000000000e+00 0.000000000000000000e+00 0.000000000000000000e+00 4.892420428683100504e-16 4.550553007244909607e-15 0.000000000000000000e+00 1.384813929537733028e-15 5.468401368418851400e-15 6.114047373562964828e-18 1.418655428286759081e-15 8.989386497608209391e-16 0.000000000000000000e+00 -9.628615334023259749e-17 -1.254090656860717882e-15 0.000000000000000000e+00 7.399641884475632845e-16 1.351875990697480798e-14 0.000000000000000000e+00 4.918589811599844777e-15 2.112179764627887903e-14 6.114047373562964828e-18 1.418655428286759081e-15 8.989386497608209391e-16 0.000000000000000000e+00 0.000000000000000000e+00 0.000000000000000000e+00 0.000000000000000000e+00 -4.323871075923564224e-16 6.753488990542983413e-15 0.000000000000000000e+00 7.109145270602435742e-15 3.589356755963870846e-14 6.114047373562964828e-18 1.418655428286759081e-15 8.989386497608209391e-16 0.000000000000000000e+00 0.000000000000000000e+00 0.000000000000000000e+00 0.000000000000000000e+00 -2.942735215165941666e-16 7.898247634134402389e-15 0.000000000000000000e+00 -1.253290471958748346e-15 -6.641987537083999455e-15 1.678769473724739947e-01 -1.295358267087697079e+00 9.737922604954740713e-02 4.217471250716348763e+00 -1.449307107274671935e+00 -4.859913747538208817e+00 -8.270914255612564769e-01 2.880243973174642313e+00 -8.410948681966212703e+00 -8.352280842088456225e+00 2.255726163462914968e+01 -1.088573507980382793e+01 0.000000000000000000e+00 0.000000000000000000e+00 0.000000000000000000e+00 3.754078952178761882e-15 -1.730834763037600911e-16 0.000000000000000000e+00 4.883649039542842249e-15 1.342174087212036709e-15 0.000000000000000000e+00 -1.093063819511636881e-15 1.415997379194207194e-15 -4.887800649229509443e-15 0.000000000000000000e+00 0.000000000000000000e+00 0.000000000000000000e+00 0.000000000000000000e+00 -4.085772018984017913e-15 3.038205403410922299e-15 0.000000000000000000e+00 -3.940572368105483109e-15 6.273137291307941345e-15 -1.093063819511636881e-15 1.415997379194207194e-15 -4.887800649229509443e-15 0.000000000000000000e+00 2.678907890236671253e-15 -5.682267304696818298e-16 0.000000000000000000e+00 -3.038737906046361013e-15 5.902999551130950394e-15 0.000000000000000000e+00 -2.797729729062284448e-15 -1.459883797915100261e-15 -1.093063819511636881e-15 1.415997379194207194e-15 -4.887800649229509443e-15 0.000000000000000000e+00 0.000000000000000000e+00 0.000000000000000000e+00 0.000000000000000000e+00 1.675391414554679278e-15 -1.196607974949343832e-14 0.000000000000000000e+00 1.299364495676893395e-15 4.147061356817173966e-15 -1.093063819511636881e-15 1.415997379194207194e-15 -4.887800649229509443e-15 0.000000000000000000e+00 0.000000000000000000e+00 0.000000000000000000e+00 0.000000000000000000e+00 -1.478005892876945627e-15 9.444064570528832468e-15 0.000000000000000000e+00 -6.705552520015745673e-16 2.725659759196285084e-15
6.000000000000000000e+02 0.000000000000000000e+00 0.000000000000000000e+00 0.000000000000000000e+00 0.000000000000000000e+00 0.000000000000000000e+00 8.971958145704980181e-01 -2.350973070825954081e-01 -4.897751901023815191e-01 -7.283065131366454059e-01 -6.276055647988334485e-01 -1.690805722551481427e+00 -2.836143679314087618e-01 1.370158213338326103e+00 -6.521073319967594095e-01 4.214593272733814788e-01 -3.898059612554274356e-01 5.075502543829961688e-01 -2.757011174659401709e-02 -1.548408940083227103e-01 -7.760285359171396058e-01 -4.591539133139158624e-01 -1.735102262440045839e-01 2.011725284683699044e+00 -2.264677227236476242e-01 9.261294830860802296e-01 -3.050334015298464818e-01 2.985166959876134340e-02 -5.522490773632307004e-01 -1.468719806725778954e+00 -7.267000069629966919e-02 3.863094911368193385e-01 -2.437205724749522406e-01 -3.736442507355174081e-02 -8.218401159750964302e-01 -7.145846829273182488e-01 7.861821331804304258e-02 -8.562564237002545653e-02 -6.521432142980732038e-02 2.483933459749951389e+00 -2.415450711023388930e+00 4.615319167970048042e+00 1.011449465456293773e+00 8.773230116231249820e-01 1.704845322246104633e-01 -4.368917216400589054e-01 -6.147920350716749027e-01 4.618419921195160427e-03 1.330554245366271093e+00 -1.728771901650765219e+00 -2.167555384122525908e+00 6.081301533640149870e+01 -4.185771743751529606e+00 2.738700716760828868e+01 1.256832868606057030e-01 -2.718771907134835075e+00 2.482843743588186047e+00 0.000000000000000000e+00 0.000000000000000000e+00 0.000000000000000000e+00 1.197827122320867345e-15 -5.184503462180102213e-16 0.000000000000000000e+00 -2.375469947100875364e-15 9.948210821268862097e-16 0.000000000000000000e+00 2.456087382793841139e-17 1.418329172468093008e-15 9.269016707385292418e-16 0.000000000000000000e+00 0.000000000000000000e+00 0.000000000000000000e+00 0.000000000000000000e+00 4.342907485173911150e-16 4.512358706769188665e-15 0.000000000000000000e+00 1.341964372829557115e-15 5.632875172578237466e-15 2.456087382793841139e-17 1.418329172468093008e-15 9.269016707385292418e-16 0.000000000000000000e+00 -6.035133349157072395e-17 -1.352415296213215863e-15 0.000000000000000000e+00 6.924387260942713623e-16 1.320429814055587473e-14 0.000000000000000000e+00 4.891103015846583030e-15 2.126318773789343798e-14 2.456087382793841139e-17 1.418329172468093008e-15 9.269016707385292418e-16 0.000000000000000000e+00 0.000000000000000000e+00 0.000000000000000000e+00 0.000000000000000000e+00 -4.015277547448848964e-16 6.550103737186065107e-15 0.000000000000000000e+00 7.091904752032761885e-15 3.584123515485217800e-14 2.456087382793841139e-17 1.418329172468093008e-15 9.269016707385292418e-16 0.000000000000000000e+00 0.000000000000000000e+00 0.000000000000000000e+00 0.000000000000000000e+00 -3.333734447184786196e-16 7.619864558106442637e-15 0.000000000000000000e+00 -1.254707930058077723e-15 -6.546182099913942199e-15 1.943253248133263167e-01 -1.328807320981107321e+00 8.153624777337036000e-02 4.241625551982030728e+00 -1.449027846192527225e+00 -4.890878043140562070e+00 -7.941059188646172329e-01 2.794716272533323664e+00 -8.606173271652341583e+00 -8.371883706296079808e+00 2.282745908054301509e+01 -1.081627751772278856e+01 0.000000000000000000e+00 0.000000000000000000e+00 0.000000000000000000e+00 3.900218448743396231e-15 -1.433999676184398514e-16 0.000000000000000000e+00 5.002815396557453163e-15 1.274662704894973421e-15 0.000000000000000000e+00 -1.088816559653846492e-15 1.356782369231658055e-15 -4.770011386603002559e-15 0.000000000000000000e+00 0.000000000000000000e+00 0.000000000000000000e+00 0.000000000000000000e+00 -3.955929466157794258e-15 2.505433654587653630e-15 0.000000000000000000e+00 -3.886058123638335579e-15 6.362681971533194479e-15 -1.088816559653846492e-15 1.356782369231658055e-15 -4.770011386603002559e-15 0.000000000000000000e+00 2.658451132252959364e-15 -8.159784383440592616e-16 0.000000000000000000e+00 -2.952624261270900146e-15 5.380249915016460200e-15 0.000000000000000000e+00 -2.740899970918673915e-15 -1.469870844758570506e-15 -1.088816559653846492e-15 1.356782369231658055e-15 -4.770011386603002559e-15 0.000000000000000000e+00 0.000000000000000000e+00 0.000000000000000000e+00 0.000000000000000000e+00 1.955907844619639531e-15 -1.345975000644383658e-14 0.000000000000000000e+00 1.270597132903057930e-15 4.184560018592977727e-15 -1.088816559653846492e-15 1.356782369231658055e-15 -4.770011386603002559e-15 0.000000000000000000e+00 0.000000000000000000e+00 0.000000000000000000e+00 0.000000000000000000e+00 -1.380375732086196838e-15 9.083109063830870632e-15 0.000000000000000000e+00 -6.273416335222798731e-16 2.787972469222795076e-15
